HIERARCHY
ROOT Hips
{
  OFFSET 365.14 88.179 197.519
  CHANNELS 6 Xposition Yposition Zposition Zrotation Xrotation Yrotation
  JOINT RightUpLeg
  {
    OFFSET -9.25084 -1.53971 -0.0324706
    CHANNELS 3 Zrotation Xrotation Yrotation
    JOINT RightLeg
    {
      OFFSET 0.0147984 -41.8767 0.0743683
      CHANNELS 3 Zrotation Xrotation Yrotation
      JOINT RightFoot
      {
        OFFSET 0.58129 -42.7665 -0.0966173
        CHANNELS 3 Zrotation Xrotation Yrotation
        End Site
        {
          OFFSET 0 -7.69 17.5
        }
      }
    }
  }
  JOINT LeftUpLeg
  {
    OFFSET 9.27183 -1.63567 0.0208533
    CHANNELS 3 Zrotation Xrotation Yrotation
    JOINT LeftLeg
    {
      OFFSET 0.0380064 -41.894 -0.0332375
      CHANNELS 3 Zrotation Xrotation Yrotation
      JOINT LeftFoot
      {
        OFFSET -0.00137207 -40.7578 0.276477
        CHANNELS 3 Zrotation Xrotation Yrotation
        End Site
        {
          OFFSET 0 -7.69 17.5
        }
      }
    }
  }
  JOINT Spine
  {
    OFFSET 0.0273715 14.2953 0.0132618
    CHANNELS 3 Zrotation Xrotation Yrotation
    JOINT Spine1
    {
      OFFSET 0.0356242 9.71545 0.0178671
      CHANNELS 3 Zrotation Xrotation Yrotation
      JOINT Spine2
      {
        OFFSET 0.0275401 10.1205 0.00234803
        CHANNELS 3 Zrotation Xrotation Yrotation
        JOINT Spine3
        {
          OFFSET 0.0388833 9.71499 0.00573168
          CHANNELS 3 Zrotation Xrotation Yrotation
          JOINT Neck
          {
            OFFSET 0.0812761 10.3796 0.11061
            CHANNELS 3 Zrotation Xrotation Yrotation
            JOINT Head
            {
              OFFSET 0.0694951 9.4737 0.0873993
              CHANNELS 3 Zrotation Xrotation Yrotation
              End Site
              {
                OFFSET 0 15.95 0
              }
            }
          }
          JOINT RightShoulder
          {
            OFFSET -3.16911 6.92878 0.0176909
            CHANNELS 3 Zrotation Xrotation Yrotation
            JOINT RightArm
            {
              OFFSET -12.7939 0.0472484 0.0511932
              CHANNELS 3 Zrotation Xrotation Yrotation
              JOINT RightForeArm
              {
                OFFSET -26.5086 -0.00989181 0.0576382
                CHANNELS 3 Zrotation Xrotation Yrotation
                JOINT RightHand
                {
                  OFFSET -26.0357 0.339815 -0.212656
                  CHANNELS 3 Zrotation Xrotation Yrotation
                  JOINT RightHandThumb1
                  {
                    OFFSET -2.48905 0.190105 3.12053
                    CHANNELS 3 Zrotation Xrotation Yrotation
                    JOINT RightHandThumb2
                    {
                      OFFSET -3.68274 0 0
                      CHANNELS 3 Zrotation Xrotation Yrotation
                      JOINT RightHandThumb3
                      {
                        OFFSET -2.55832 0 0
                        CHANNELS 3 Zrotation Xrotation Yrotation
                        End Site
                        {
                          OFFSET -2.194 0 0
                        }
                      }
                    }
                  }
                  JOINT RightInHandIndex
                  {
                    OFFSET -3.22368 0.508421 1.97842
                    CHANNELS 3 Zrotation Xrotation Yrotation
                    JOINT RightHandIndex1
                    {
                      OFFSET -5.21684 -0.091368 0.999158
                      CHANNELS 3 Zrotation Xrotation Yrotation
                      JOINT RightHandIndex2
                      {
                        OFFSET -3.61937 0 0
                        CHANNELS 3 Zrotation Xrotation Yrotation
                        JOINT RightHandIndex3
                        {
                          OFFSET -2.0521 0 0
                          CHANNELS 3 Zrotation Xrotation Yrotation
                          End Site
                          {
                            OFFSET -1.805 0 0
                          }
                        }
                      }
                    }
                  }
                  JOINT RightInHandMiddle
                  {
                    OFFSET -3.38211 0.517263 0.756737
                    CHANNELS 3 Zrotation Xrotation Yrotation
                    JOINT RightHandMiddle1
                    {
                      OFFSET -5.17411 -0.084 0.313895
                      CHANNELS 3 Zrotation Xrotation Yrotation
                      JOINT RightHandMiddle2
                      {
                        OFFSET -3.94947 0 0
                        CHANNELS 3 Zrotation Xrotation Yrotation
                        JOINT RightHandMiddle3
                        {
                          OFFSET -2.47579 0 0
                          CHANNELS 3 Zrotation Xrotation Yrotation
                          End Site
                          {
                            OFFSET -1.975 0 0
                          }
                        }
                      }
                    }
                  }
                  JOINT RightInHandRing
                  {
                    OFFSET -3.36516 0.537895 -0.128947
                    CHANNELS 3 Zrotation Xrotation Yrotation
                    JOINT RightHandRing1
                    {
                      OFFSET -4.63474 -0.022105 -0.478947
                      CHANNELS 3 Zrotation Xrotation Yrotation
                      JOINT RightHandRing2
                      {
                        OFFSET -3.44238 0 0
                        CHANNELS 3 Zrotation Xrotation Yrotation
                        JOINT RightHandRing3
                        {
                          OFFSET -2.3881 0 0
                          CHANNELS 3 Zrotation Xrotation Yrotation
                          End Site
                          {
                            OFFSET -1.857 0 0
                          }
                        }
                      }
                    }
                  }
                  JOINT RightInHandPinky
                  {
                    OFFSET -3.16105 0.469368 -1.20179
                    CHANNELS 3 Zrotation Xrotation Yrotation
                    JOINT RightHandPinky1
                    {
                      OFFSET -4.14105 -0.022105 -1.09053
                      CHANNELS 3 Zrotation Xrotation Yrotation
                      JOINT RightHandPinky2
                      {
                        OFFSET -2.75653 0 0
                        CHANNELS 3 Zrotation Xrotation Yrotation
                        JOINT RightHandPinky3
                        {
                          OFFSET -1.74189 0 0
                          CHANNELS 3 Zrotation Xrotation Yrotation
                          End Site
                          {
                            OFFSET -1.645 0 0
                          }
                        }
                      }
                    }
                  }
                }
              }
            }
          }
          JOINT LeftShoulder
          {
            OFFSET 3.24184 6.89832 -0.0228965
            CHANNELS 3 Zrotation Xrotation Yrotation
            JOINT LeftArm
            {
              OFFSET 12.8376 -0.0155948 -0.0448787
              CHANNELS 3 Zrotation Xrotation Yrotation
              JOINT LeftForeArm
              {
                OFFSET 26.5019 -0.0237061 -0.00609661
                CHANNELS 3 Zrotation Xrotation Yrotation
                JOINT LeftHand
                {
                  OFFSET 25.9931 -0.0767526 0.00928659
                  CHANNELS 3 Zrotation Xrotation Yrotation
                  JOINT LeftHandThumb1
                  {
                    OFFSET 2.48905 0.190105 3.12053
                    CHANNELS 3 Zrotation Xrotation Yrotation
                    JOINT LeftHandThumb2
                    {
                      OFFSET 3.68274 0 0
                      CHANNELS 3 Zrotation Xrotation Yrotation
                      JOINT LeftHandThumb3
                      {
                        OFFSET 2.55832 0 0
                        CHANNELS 3 Zrotation Xrotation Yrotation
                        End Site
                        {
                          OFFSET 2.194 0 0
                        }
                      }
                    }
                  }
                  JOINT LeftInHandIndex
                  {
                    OFFSET 3.22368 0.508421 1.97842
                    CHANNELS 3 Zrotation Xrotation Yrotation
                    JOINT LeftHandIndex1
                    {
                      OFFSET 5.21684 -0.091368 0.999158
                      CHANNELS 3 Zrotation Xrotation Yrotation
                      JOINT LeftHandIndex2
                      {
                        OFFSET 3.61937 0 0
                        CHANNELS 3 Zrotation Xrotation Yrotation
                        JOINT LeftHandIndex3
                        {
                          OFFSET 2.0521 0 0
                          CHANNELS 3 Zrotation Xrotation Yrotation
                          End Site
                          {
                            OFFSET 1.805 0 0
                          }
                        }
                      }
                    }
                  }
                  JOINT LeftInHandMiddle
                  {
                    OFFSET 3.38211 0.517263 0.756737
                    CHANNELS 3 Zrotation Xrotation Yrotation
                    JOINT LeftHandMiddle1
                    {
                      OFFSET 5.17411 -0.084 0.313895
                      CHANNELS 3 Zrotation Xrotation Yrotation
                      JOINT LeftHandMiddle2
                      {
                        OFFSET 3.94947 0 0
                        CHANNELS 3 Zrotation Xrotation Yrotation
                        JOINT LeftHandMiddle3
                        {
                          OFFSET 2.47579 0 0
                          CHANNELS 3 Zrotation Xrotation Yrotation
                          End Site
                          {
                            OFFSET 1.975 0 0
                          }
                        }
                      }
                    }
                  }
                  JOINT LeftInHandRing
                  {
                    OFFSET 3.36516 0.537895 -0.128947
                    CHANNELS 3 Zrotation Xrotation Yrotation
                    JOINT LeftHandRing1
                    {
                      OFFSET 4.63474 -0.022105 -0.478947
                      CHANNELS 3 Zrotation Xrotation Yrotation
                      JOINT LeftHandRing2
                      {
                        OFFSET 3.44238 0 0
                        CHANNELS 3 Zrotation Xrotation Yrotation
                        JOINT LeftHandRing3
                        {
                          OFFSET 2.3881 0 0
                          CHANNELS 3 Zrotation Xrotation Yrotation
                          End Site
                          {
                            OFFSET 1.857 0 0
                          }
                        }
                      }
                    }
                  }
                  JOINT LeftInHandPinky
                  {
                    OFFSET 3.16105 0.469368 -1.20179
                    CHANNELS 3 Zrotation Xrotation Yrotation
                    JOINT LeftHandPinky1
                    {
                      OFFSET 4.14105 -0.022105 -1.09053
                      CHANNELS 3 Zrotation Xrotation Yrotation
                      JOINT LeftHandPinky2
                      {
                        OFFSET 2.75653 0 0
                        CHANNELS 3 Zrotation Xrotation Yrotation
                        JOINT LeftHandPinky3
                        {
                          OFFSET 1.74189 0 0
                          CHANNELS 3 Zrotation Xrotation Yrotation
                          End Site
                          {
                            OFFSET 1.645 0 0
                          }
                        }
                      }
                    }
                  }
                }
              }
            }
          }
        }
      }
    }
  }
}
MOTION
Frames: 3
Frame Time: 0.00833333
4.500411823467413797e+02 -6.685611623904156794e-03 -1.476088298836435511e-02 7.289705614443438286e-02 1.134517507929047736e-01 4.029590512045783668e-01 -3.553308535349330999e-01 9.254373372765143171e-03 -6.234879033094705703e-01 2.429313732417186233e-02 4.069706976191407588e-02 3.883888056910585196e-02 -4.356787221376489522e-02 -3.094620542511070452e-02 -1.217390925739273225e-02 -1.997461609126535420e-01 -1.995062906337424780e-01 -6.120391031763816603e-01 6.974069125164976098e-04 5.226815996791028124e-02 -1.950737900844741468e-02 7.472851960965512519e-02 -2.185659486840045920e-02 1.808671646805629640e-01 1.874682713033795634e-01 -9.880731804146513503e-03 -2.710800595512133926e-01 3.939987358368055026e-02 -7.819096166753631075e-03 -6.108249981281199670e-02 6.400897178085857009e-02 -1.706776875799318957e-02 -9.693701630587087115e-02 1.132088677958889176e-03 -7.793105317934110286e-03 2.721058985859981915e-03 1.389592758843301171e-03 5.010846091593022106e-02 -1.260974618912574508e-01 -5.313889334831291972e-02 -1.086219234840762743e-01 1.422901943216485776e-01 -1.994494869509006452e-01 -8.258513036949018116e-02 2.352439983161306453e-02 -2.781603820453893913e-02 4.619699251671785523e-01 -2.368144063557057477e-01 4.146621927725439249e+00 -1.633109556198896639e+00 -3.692774408852251611e+00 2.353270372727606308e+00 6.186729770400017259e+00 2.993161823071420979e+00 0.000000000000000000e+00 0.000000000000000000e+00 0.000000000000000000e+00 5.118625593725069348e-16 8.396006638953722287e-16 0.000000000000000000e+00 6.856738716738349226e-17 1.912294453503496986e-16 0.000000000000000000e+00 -1.558225899032178532e-15 1.223538510207152537e-15 -1.387538735460024130e-15 0.000000000000000000e+00 0.000000000000000000e+00 0.000000000000000000e+00 0.000000000000000000e+00 -4.152780869445539100e-15 -3.165807206766953146e-15 0.000000000000000000e+00 1.666434824889965600e-15 -3.008079368177626466e-16 -1.558225899032178532e-15 1.223538510207152537e-15 -1.387538735460024130e-15 0.000000000000000000e+00 1.086474154847239968e-15 2.357147497705988651e-15 0.000000000000000000e+00 6.329777787536123798e-16 -3.071279756903190070e-16 0.000000000000000000e+00 4.239695055748006537e-15 -2.459117832137219048e-15 -1.558225899032178532e-15 1.223538510207152537e-15 -1.387538735460024130e-15 0.000000000000000000e+00 0.000000000000000000e+00 0.000000000000000000e+00 0.000000000000000000e+00 1.060946781117125059e-15 -1.420188419258576257e-15 0.000000000000000000e+00 -2.441724349474111173e-15 -2.137165206042717036e-16 -1.558225899032178532e-15 1.223538510207152537e-15 -1.387538735460024130e-15 0.000000000000000000e+00 0.000000000000000000e+00 0.000000000000000000e+00 0.000000000000000000e+00 -3.384896002654385373e-15 -1.783716425451113633e-15 0.000000000000000000e+00 -1.141731020907912569e-15 -3.109992133938178514e-15 -4.531761933275627041e-01 -6.614537454528955918e-01 -1.096747627716557538e+00 -1.238572032334619433e+00 7.536300236889057480e-01 1.834870918526400718e+00 3.994562092602810810e-01 3.613580827777045923e-01 -5.985976352685005164e-01 -6.049552143824474953e-02 -3.369431052816451166e-01 8.948437907119961565e-01 0.000000000000000000e+00 0.000000000000000000e+00 0.000000000000000000e+00 -6.863639114232993897e-16 6.789882083593814633e-16 0.000000000000000000e+00 -6.944249270755398329e-16 1.575028536033619343e-15 0.000000000000000000e+00 8.379327864489142171e-16 -3.163869165846609495e-15 -1.817847424695629376e-16 0.000000000000000000e+00 0.000000000000000000e+00 0.000000000000000000e+00 0.000000000000000000e+00 2.806200950547223294e-15 -5.105349092600345262e-15 0.000000000000000000e+00 -1.668694890699695574e-15 8.036295305729582451e-16 8.379327864489142171e-16 -3.163869165846609495e-15 -1.817847424695629376e-16 0.000000000000000000e+00 5.204522996826880831e-17 5.307570211729056435e-15 0.000000000000000000e+00 2.750479914790228566e-15 -1.005167697094126644e-16 0.000000000000000000e+00 -1.675738765234011560e-15 -1.898519098268892270e-16 8.379327864489142171e-16 -3.163869165846609495e-15 -1.817847424695629376e-16 0.000000000000000000e+00 0.000000000000000000e+00 0.000000000000000000e+00 0.000000000000000000e+00 -5.595788434237680757e-16 3.805818548041325670e-15 0.000000000000000000e+00 -4.830017626137148788e-17 -8.828314808862477756e-16 8.379327864489142171e-16 -3.163869165846609495e-15 -1.817847424695629376e-16 0.000000000000000000e+00 0.000000000000000000e+00 0.000000000000000000e+00 0.000000000000000000e+00 3.332815330291310596e-15 -1.009498962120497877e-15 0.000000000000000000e+00 -2.412407068977346974e-15 3.990811211149387336e-15
4.500531178530567900e+02 -1.036980086425072500e-02 -2.612398933959146630e-02 8.058298912626866983e-02 1.328032082239085365e-01 3.987398793462765267e-01 -3.258702754990175365e-01 5.974710641348317600e-03 -5.586694915841123876e-01 1.872765453585006207e-02 4.040179155134377559e-02 -9.191587804362334746e-03 -1.563899649288176194e-02 -2.935213911055270172e-02 -2.677308566744687063e-02 -1.756740210770279809e-01 -2.042203083371049166e-01 -5.783726430106846950e-01 2.213379600864209124e-02 5.750431044048699009e-02 -3.930585382559693280e-02 7.422576189151887383e-02 -1.599586033342843133e-02 1.741109208169496214e-01 2.122439163090011072e-01 -1.010863097163646959e-02 -2.736243153968592190e-01 4.517312238128725482e-02 -7.980674652412736783e-03 -6.074943235970640953e-02 7.373972971466477566e-02 -1.750009975417281607e-02 -9.600084600122089917e-02 1.339016097997791036e-03 -9.616694457536005894e-03 2.530310828824092282e-03 -4.290691457160703687e-02 7.296728323847576081e-03 -7.611848995297865184e-02 -1.549424879140902378e-02 -5.911225284620152259e-02 1.011705692401125845e-01 -2.305670866582461287e-01 -7.894707295239035416e-02 9.468727889429344111e-03 2.301235814630842730e-02 4.003999655937054980e-01 -2.258393930034038322e-01 3.099090033622260432e+00 -1.128733729393818663e+00 -2.664823424092353843e+00 1.790203718714385772e+00 5.047583989998953413e+00 2.239020781259492221e+00 0.000000000000000000e+00 0.000000000000000000e+00 0.000000000000000000e+00 -6.571122442019843960e-16 4.210726774652783542e-16 0.000000000000000000e+00 1.774488677548388885e-16 2.093266197323300864e-16 0.000000000000000000e+00 -1.283597728423709781e-15 6.914826834007711360e-16 -1.204686509957298067e-15 0.000000000000000000e+00 0.000000000000000000e+00 0.000000000000000000e+00 0.000000000000000000e+00 -4.339598658437633363e-15 -2.334548178784683229e-15 0.000000000000000000e+00 1.592305962809990949e-15 -1.042958413384762115e-15 -1.283597728423709781e-15 6.914826834007711360e-16 -1.204686509957298067e-15 0.000000000000000000e+00 1.731284969357751945e-15 2.779558924371679728e-15 0.000000000000000000e+00 6.879071537030658227e-16 3.834148782081685319e-16 0.000000000000000000e+00 4.333603572469447220e-15 -1.728315740202515806e-15 -1.283597728423709781e-15 6.914826834007711360e-16 -1.204686509957298067e-15 0.000000000000000000e+00 0.000000000000000000e+00 0.000000000000000000e+00 0.000000000000000000e+00 9.340272644363764483e-16 -1.265409716595916481e-16 0.000000000000000000e+00 -1.740499420864713714e-15 3.706980739113386610e-16 -1.283597728423709781e-15 6.914826834007711360e-16 -1.204686509957298067e-15 0.000000000000000000e+00 0.000000000000000000e+00 0.000000000000000000e+00 0.000000000000000000e+00 -3.352782328407202660e-15 -4.797117008855948245e-16 0.000000000000000000e+00 -1.503249072977250682e-15 -3.425419332504396792e-15 -5.252785485077152705e-01 -7.205958207341639499e-01 -1.182631062759098128e+00 -1.380777911131589875e+00 8.719989260402045694e-01 2.107264608629909386e+00 4.465225760820158429e-01 3.736487212217627918e-01 -7.352966964215830181e-01 -4.771320634918725656e-02 -4.424626146343883515e-01 1.015792345399058272e+00 0.000000000000000000e+00 0.000000000000000000e+00 0.000000000000000000e+00 3.963612776874878439e-16 1.026258059809459118e-15 0.000000000000000000e+00 -9.467764815940311315e-16 1.501690982194008125e-15 0.000000000000000000e+00 -2.007273507503282485e-17 -3.258005272268374982e-15 2.113635051422782202e-16 0.000000000000000000e+00 0.000000000000000000e+00 0.000000000000000000e+00 0.000000000000000000e+00 2.486842476373579147e-15 -4.540428167180095049e-15 0.000000000000000000e+00 -1.018474990772131187e-15 1.040606625282398180e-15 -2.007273507503282485e-17 -3.258005272268374982e-15 2.113635051422782202e-16 0.000000000000000000e+00 1.011809103614453759e-16 2.996983208714954117e-15 0.000000000000000000e+00 2.143635286165489845e-15 -1.282665882543646044e-15 0.000000000000000000e+00 -2.373204499589698027e-15 -6.748868943680269374e-16 -2.007273507503282485e-17 -3.258005272268374982e-15 2.113635051422782202e-16 0.000000000000000000e+00 0.000000000000000000e+00 0.000000000000000000e+00 0.000000000000000000e+00 2.534715813198520714e-16 2.635412229529651502e-15 0.000000000000000000e+00 1.097891157820949801e-15 -2.665654577181456192e-15 -2.007273507503282485e-17 -3.258005272268374982e-15 2.113635051422782202e-16 0.000000000000000000e+00 0.000000000000000000e+00 0.000000000000000000e+00 0.000000000000000000e+00 4.299099590089468718e-15 -8.417316426286536219e-16 0.000000000000000000e+00 -2.186783046293071462e-15 3.904263239838500717e-15
4.500601198882190488e+02 -1.299417297382440308e-02 -3.591049309711605991e-02 8.604874229848476219e-02 1.448937025763303299e-01 3.744021635156702388e-01 -2.865731999881714342e-01 6.772675999168554020e-04 -4.796260742720991899e-01 1.661920064230716990e-02 3.789189920199883405e-02 -5.071749500636715119e-02 1.931107787622686825e-02 -2.719234558871096857e-02 -4.080370554553037349e-02 -1.436478383725957875e-01 -1.954133973805977365e-01 -5.144868579892137861e-01 4.172618949370207608e-02 6.267693355816109091e-02 -6.174159713708755187e-02 6.817382927059120745e-02 -1.747372723832096506e-02 1.607120915601676914e-01 2.202948697997925143e-01 -9.644727995672598697e-03 -2.493625236729052619e-01 4.733504470045576257e-02 -7.242294111158838026e-03 -5.440819220604659751e-02 7.760848408219517269e-02 -1.586062352500424572e-02 -8.544209414850696682e-02 1.701897150199586668e-03 -1.072120758893928098e-02 1.299854172344683473e-03 -8.263428360872371314e-02 -3.217803260687568390e-02 -3.450380256175725885e-02 2.902693787600698141e-02 -1.411204334810736705e-02 4.543614106698089933e-02 -2.380864228234522983e-01 -7.762842958540566718e-02 -1.540963500089997246e-02 5.881800873189413359e-02 3.124524068050789083e-01 -2.175484707842671728e-01 1.643515510024424753e+00 -4.601343957109025884e-01 -1.244913226213276047e+00 1.069211635180914888e+00 3.413217690235155199e+00 1.278683598268575139e+00 0.000000000000000000e+00 0.000000000000000000e+00 0.000000000000000000e+00 -1.835090517759713039e-15 -3.353680266238985971e-17 0.000000000000000000e+00 2.577134467513532726e-16 2.071778711416801382e-16 0.000000000000000000e+00 -8.989362134131241101e-16 -1.561779545552774315e-17 -9.043455735827607000e-16 0.000000000000000000e+00 0.000000000000000000e+00 0.000000000000000000e+00 0.000000000000000000e+00 -3.962921608437839869e-15 -1.229975899062372026e-15 0.000000000000000000e+00 1.233517701958170882e-15 -1.680209405378558029e-15 -8.989362134131241101e-16 -1.561779545552774315e-17 -9.043455735827607000e-16 0.000000000000000000e+00 2.312688985513525475e-15 2.767374989245249963e-15 0.000000000000000000e+00 5.574851313323223703e-16 8.924798945138140571e-16 0.000000000000000000e+00 3.959706931470340058e-15 -6.453810137181651849e-16 -8.989362134131241101e-16 -1.561779545552774315e-17 -9.043455735827607000e-16 0.000000000000000000e+00 0.000000000000000000e+00 0.000000000000000000e+00 0.000000000000000000e+00 7.996125615812508026e-16 1.231526607287286354e-15 0.000000000000000000e+00 -7.619063298723801135e-16 9.947906083110744671e-16 -8.989362134131241101e-16 -1.561779545552774315e-17 -9.043455735827607000e-16 0.000000000000000000e+00 0.000000000000000000e+00 0.000000000000000000e+00 0.000000000000000000e+00 -2.888085507106448712e-15 9.090943011605078337e-16 0.000000000000000000e+00 -1.733334293016618421e-15 -3.367939609040365033e-15 -5.556232165628808284e-01 -7.278153511124509922e-01 -1.181512669713243424e+00 -1.402702712606471946e+00 9.205490834617736651e-01 2.197551053331484372e+00 4.554772957031205105e-01 3.546705275468783336e-01 -8.080213090193376635e-01 -2.164780570451553532e-02 -4.870176939342402700e-01 1.013764481739200418e+00 0.000000000000000000e+00 0.000000000000000000e+00 0.000000000000000000e+00 1.521003081001110738e-15 1.266628275588557436e-15 0.000000000000000000e+00 -1.165334142692711017e-15 1.195162342594661979e-15 0.000000000000000000e+00 -8.793077231464032752e-16 -2.955684861404755627e-15 4.874093568439828603e-16 0.000000000000000000e+00 0.000000000000000000e+00 0.000000000000000000e+00 0.000000000000000000e+00 1.884960104832451610e-15 -3.445508204711113397e-15 0.000000000000000000e+00 -2.257722049075975330e-16 1.276497282965277490e-15 -8.793077231464032752e-16 -2.955684861404755627e-15 4.874093568439828603e-16 0.000000000000000000e+00 3.104069982699708394e-16 4.035242613867086280e-16 0.000000000000000000e+00 1.237617645389555699e-15 -2.362703017062449783e-15 0.000000000000000000e+00 -2.970730379613780787e-15 -1.114733578336644200e-15 -8.793077231464032752e-16 -2.955684861404755627e-15 4.874093568439828603e-16 0.000000000000000000e+00 0.000000000000000000e+00 0.000000000000000000e+00 0.000000000000000000e+00 1.159964973701862239e-15 1.061930433358823206e-15 0.000000000000000000e+00 2.170005991380791230e-15 -4.258872663105131683e-15 -8.793077231464032752e-16 -2.955684861404755627e-15 4.874093568439828603e-16 0.000000000000000000e+00 0.000000000000000000e+00 0.000000000000000000e+00 0.000000000000000000e+00 4.805027173295422669e-15 -7.876844519540785718e-16 0.000000000000000000e+00 -1.791809411188122666e-15 3.535751067691114294e-15
